<svg xmlns="http://www.w3.org/2000/svg" viewBox="0 0 150 150">
<!-- SVG created with Arrow, by QuiverAI (https://quiver.ai) -->
  <style type="text/css">.cls-0 {fill:url(#SVGID_1_);}
.cls-1 {fill:#081728;}
.cls-2 {fill:url(#SVGID_2_);}
.cls-3 {fill:url(#SVGID_3_);}
.cls-4 {fill:#D0D2D3;}
.cls-5 {fill:#838C94;}
.cls-6 {fill:url(#SVGID_4_);}
.cls-7 {fill:#D0312F;}
.cls-8 {fill:#082136;}
.cls-9 {fill:#FFFFFF;}
.cls-10 {fill:#BCC1C6;}
.cls-11 {fill:#65707C;}
.cls-12 {fill:#A82727;}
.cls-13 {fill:url(#SVGID_5_);}
.cls-14 {fill:url(#SVGID_6_);}
.cls-15 {fill:#CDD1D3;}
.cls-16 {fill:#4375A5;}
.cls-17 {fill:url(#SVGID_7_);}
.cls-18 {fill:url(#SVGID_8_);}
.cls-19 {fill:url(#SVGID_9_);}
.cls-20 {fill:url(#SVGID_10_);}
.cls-21 {fill:#091929;}
.cls-22 {fill:url(#SVGID_11_);}
.cls-23 {fill:#E5E6E7;}
.cls-24 {fill:url(#SVGID_12_);}
.cls-25 {fill:#C2C4C6;}
.cls-26 {fill:url(#SVGID_13_);}</style>
  <linearGradient id="SVGID_1_" x1="74.87" x2="74.87" y1="8.964" y2="140.8" gradientUnits="userSpaceOnUse">
    <stop stop-color="#FF893A" offset="0"/>
    <stop stop-color="#E94935" offset="1"/>
  </linearGradient>
  <path class="cls-0" d="m136.8 41.8c5.8-4.9 6.8-11.4 7.2-17.3l-1.6 2.5c3.4-5.9 1.6-14.5 0.1-18-3 8.1-11.1 14.7-17.4 18.9l-50.3-15.7-50.2 15.7c-6.3-4-13.5-9.4-17.3-18.9-1.7 3.7-3.4 12.1 0.3 18l-1.8-2.6c0.7 5.3 1.8 12.4 7.2 17.2l0.4 0.4-0.3-0.2-9.2 2.5 5.1 7.4-6.8 31.9h8l-2.9 6 18 4.1c3.8 21 21.3 47.1 49.6 47.1 21.4 0 42.8-16.3 49.4-47l17.9-4.1-3.4-7.5c2.7-2.1 4.6-4.7 5.4-8.7l3.5-16.9c1.3-8.8-4.1-12.9-10.9-14.8z"/>
  <path class="cls-1" d="m139.3 44.5-15.5-3.4 1.5-12.1-50.6-14.9-50.1 15.3 0.8 11.5-19.4 4 4.4 6.5-6.6 30.8h8.5l-3.1 6.4 28.6 5.1c8.8 12.6 21.6 45.7 37.1 45.7 16.6 0 31-8.9 41.5-25.4 3.9-6.1 6.1-14.4 6.9-21.1l16.9-4.2-3.1-7c3-1.9 5-4.4 5.9-8.6l3.2-16.7c0.9-4.5-0.9-10.2-6.9-11.9z"/>
  <linearGradient id="SVGID_2_" x1="74.74" x2="74.74" y1="18.23" y2="136.6" gradientUnits="userSpaceOnUse">
    <stop stop-color="#E5E8E9" offset="0"/>
    <stop stop-color="#737B84" offset="1"/>
  </linearGradient>
  <path class="cls-2" d="m74.7 18.2-45.8 14.4 0.3 10.3-16.1 2.5 24.4 1.4c5.3 7.9 16.6 23.8 37.1 33.2 17.8-7.9 30.2-23 37.1-33.1l24.7-1.5-16.1-2.4 0.3-10.4-45.9-14.4z"/>
  <linearGradient id="SVGID_3_" x1="74.74" x2="74.74" y1="19.09" y2="45.5" gradientUnits="userSpaceOnUse">
    <stop stop-color="#fff" offset="0"/>
    <stop stop-color="#B9C0C5" offset="1"/>
  </linearGradient>
  <path class="cls-3" d="m74.7 19.1-44 14.8 0.4 8.6 0.5-8.6 10.4-3.2-4.6 1.9 13.5-3.9-13.7 4.3 1.6 0.2-6.7 1.7 0.5 5.6 0.4-5.6 20.1-6.2-19.7 6.9 0.4 5.5 0.1-5.2 40.8-12v-4.8z"/>
  <path class="cls-4" d="m74.7 18.2v0.9l44 14.8-0.4 11 11 0.6 7.1-0.1-17-1 0.5-11z"/>
  <path class="cls-5" d="m74.7 23.9 42.1 11.7-0.5 9.9h1l0.2-10.4-8.7-2.8 3.8 0.3-16-4.7 10.6 2.8-16.6-4.7 21.4 7.4-0.3 0.5-14.3-4.2 20.1 5.4-0.3 3-0.2-3.2-23-6.2 22.8 7.4-0.8 9.4h1l0.9-10.6-43.2-11z"/>
  <linearGradient id="SVGID_4_" x1="74.68" x2="74.68" y1="24.55" y2="136.4" gradientUnits="userSpaceOnUse">
    <stop stop-color="#0C2F51" offset="0"/>
    <stop stop-color="#081728" offset="1"/>
  </linearGradient>
  <path class="cls-6" d="m74.7 24.6-39.7 12.3 0.5 8.6h-27.5l3.8 5.4-6.4 30h8.9l-3.4 6.8 26.9 5.9c7.8 10.8 18.3 22.5 36.9 31 16.4-6.2 28.2-19 37.2-31.2l26.7-5.6-2.9-6.8c2.9-1.5 5.1-4 6-8l3.7-16.3c1-5.2-1.3-10.1-6.2-11.5l-14.5-4.1h-0.8l-0.1-10.7-49.1-15.4-48.9 15.4v10.6l-12.8 4.4 16.2-2.5-0.3-10.3 45.8-17.6 49.2 15.4-49.2-5.8z"/>
  <path class="cls-1" d="m123.9 28.1-49.2-15.9-50.2 15.7 0.1 1.5 50.1-15.5 50.6 15.1z"/>
  <linearGradient id="SVGID_5_" x1="74.77" x2="74.77" y1="92.86" y2="136.4" gradientUnits="userSpaceOnUse">
    <stop stop-color="#B4BAC0" offset="0"/>
    <stop stop-color="#737B84" offset="1"/>
  </linearGradient>
  <path class="cls-13" d="m29.7 93.2 7.6 1.5c5.8 8.4 14.6 18.8 24.1 24.9l13.3 5.7 11.9-3.4c7.6-4 18.2-13 26.1-27.2l7.1-1.5-0.4 2.5c-3 17-19.2 40.7-44.7 40.7-22.9 0-40.6-19.5-44.8-40.9l-0.2-2.3z"/>
  <linearGradient id="SVGID_6_" x1="74.91" x2="74.91" y1="95.66" y2="135.6" gradientUnits="userSpaceOnUse">
    <stop stop-color="#E5E8E9" offset="0"/>
    <stop stop-color="#B9C0C5" offset="1"/>
  </linearGradient>
  <path class="cls-18" d="m30.1 95.7 5.8 1.4c6.7 9 13.8 17.3 24.7 23.4l14.1 15.1 10-1.4c14.4-3.6 29.3-17 34.2-38l0.8-0.5-5.8 1.2c-7 9.5-17 18.7-25 23.2l-14.2 15.5-9.2-1.6c-14.8-3.4-29-15.6-35.4-38.3z"/>
  <path class="cls-1" d="m24.6 29.4c-6.3-3.4-13.7-9.4-17.1-16.4-1.6 7.1 0.4 14.7 6.4 18.5 3.6 2.4 7.7 3.5 10 7.1l0.5-0.7v-8.5z"/>
  <path class="cls-7" d="m17.1 42.1 7.4-2.1-0.1-1.9 0.2 1.9-7.5 2.1z"/>
  <path class="cls-1" d="m7.8 28.2c0.5 6.3 4.7 12.8 9.3 13.9l7.4-2.1c-2.9-4.5-12.1-6.1-16.7-11.8z"/>
  <linearGradient id="SVGID_7_" x1="9.001" x2="24.38" y1="28.43" y2="28.43" gradientUnits="userSpaceOnUse">
    <stop stop-color="#E5E8E9" offset="0"/>
    <stop stop-color="#434E58" offset="1"/>
  </linearGradient>
  <path class="cls-17" d="m9 19c3.7 5.4 12.4 10 14.5 12.6 0.5 0.5 0.9 1.5 0.9 2.5l-0.1 3.8c-2.7-4.8-14.3-6-15.3-18.9z"/>
  <linearGradient id="SVGID_8_" x1="10.58" x2="24.43" y1="29.38" y2="29.38" gradientUnits="userSpaceOnUse">
    <stop stop-color="#343F4A" offset="0"/>
    <stop stop-color="#838C94" offset="1"/>
  </linearGradient>
  <path class="cls-18" d="m10.6 22.1c3 4.1 13.1 8.3 13.8 11.9v3.9c-2.2-4.3-11-6.3-13.8-15.8z"/>
  <linearGradient id="SVGID_9_" x1="11.08" x2="22.89" y1="34.92" y2="34.92" gradientUnits="userSpaceOnUse">
    <stop stop-color="#D0D2D3" offset="0"/>
    <stop stop-color="#5B6774" offset="1"/>
  </linearGradient>
  <path class="cls-19" d="m11.1 29.7c2 3.9 8.4 5.9 11.8 8.8l-3 0.2-4.4-2.3-2.9-2.8-1.5-3.9z"/>
  <path class="cls-5" d="m12.3 35.5c1.3 2.2 3.8 5 7.1 4.5l2.8-0.5-7.6-2.6-2.3-1.4z"/>
  <linearGradient id="SVGID_10_" x1="12.34" x2="22.21" y1="37.76" y2="37.76" gradientUnits="userSpaceOnUse">
    <stop stop-color="#BCC1C6" offset="0"/>
    <stop stop-color="#343F4A" offset="1"/>
  </linearGradient>
  <path class="cls-20" d="m12.3 35.5c2.3 1.9 7.1 3.1 9.9 4-3.1 0.9-7.5 0.7-9.9-4z"/>
  <path class="cls-1" d="m125.3 29.4c6.3-3.4 13.8-9.4 16.8-16.4 1.8 5.7 0 14.4-6.2 18.4-3.5 2.3-7.7 3.6-10.5 7.2l-0.4-0.7 0.3-8.5z"/>
  <path class="cls-1" d="m142 28.4c-0.5 6.2-5.1 12.6-9.1 13.6l-7.9-2c3-4.5 12.4-5.9 17-11.6z"/>
  <linearGradient id="SVGID_11_" x1="125.6" x2="140.7" y1="28.43" y2="28.43" gradientUnits="userSpaceOnUse">
    <stop stop-color="#B4BAC0" offset="0"/>
    <stop stop-color="#434E58" offset="1"/>
  </linearGradient>
  <path class="cls-22" d="m140.7 19c-3.8 5.4-12.5 10-14.6 12.2-0.5 0.7-0.5 1.3-0.6 2.2l-0.1 4.5c2.7-4.8 14.3-5.5 15.3-18.9z"/>
  <path class="cls-5" d="m138.9 22.6c-3 4.1-12.5 7.3-13.3 10.8l-0.2 4.5c2.7-3.8 10.7-5.8 13.5-15.3z"/>
  <linearGradient id="SVGID_12_" x1="127" x2="138.3" y1="33.96" y2="33.96" gradientUnits="userSpaceOnUse">
    <stop stop-color="#838C94" offset="0"/>
    <stop stop-color="#D0D2D3" offset="1"/>
  </linearGradient>
  <path class="cls-24" d="m138.3 30.4c-2.9 3-7.9 4.7-11.2 7.6l2.8 0.1 4.5-2.1 2.1-1.8 1.8-3.8z"/>
  <path class="cls-11" d="m137.6 35.5c-2.1 1.6-7.2 3.1-10.6 4l3.6 0.5c3-0.5 5-1.5 7-4.5z"/>
  <linearGradient id="SVGID_13_" x1="127" x2="137.6" y1="37.88" y2="37.88" gradientUnits="userSpaceOnUse">
    <stop stop-color="#BCC1C6" offset="0"/>
    <stop stop-color="#343F4A" offset="1"/>
  </linearGradient>
  <path class="cls-26" d="m137.6 35.5c-2.2 1.6-7.2 3.1-10.6 3.9 2.9 1 8.1 0.8 10.6-3.9z"/>
  <path class="cls-4" d="m32.1 34.9 0.3 10.6h0.5l-0.3-10 7.6-2.4z"/>
  <path class="cls-7" d="m37.6 38.7 0.3 5.3 0.8-4.6 5.8-2.8z"/>
  <path class="cls-7" d="m104.9 36.6 6 2.6 1 0.3v0.2h0.1v0.3l0.1 0.5-0.1-0.1 0.1 0.2h-0.1l0.1 0.1-0.2-0.1 0.2 0.3 0.1 0.3 0.2 0.8-0.3-0.6 0.1 0.6-0.3-0.5 0.3 1.6v-0.1l-0.1-0.1 0.3 1.1-0.2-0.1v0.1-0.1 0.1 0.1-0.1 0.1 0.1-0.2 0.1l-0.1-0.1h0.2l-0.1 0.1v-0.1 0.2-0.2 0.1-0.1 0.1-0.1 0.1-0.1 0.1-0.1 0.1-0.1 0.1-0.1 0.1l-0.1-2.1 0.3 1.6-0.2-0.5v-0.1l-0.2-1.1 0.2 0.3-0.2-0.8-0.1-0.2v-0.3 0.1l-0.2-0.3 0.2 0.2-0.3-0.9 0.1 0.1-0.1-0.6v-0.8z"/>
  <path class="cls-5" d="m30.1 95.5 6 1.6 1.3-2.4-7.4-1.6z"/>
  <path class="cls-5" d="m119.4 95.7-5.5 1.2-1.2-2.2 7.1-1.5z"/>
  <path class="cls-16" d="m62.4 33.2c1.7-1.8 3.3-3.2 8-3.5-2.3 2-4 3.5-8 3.5zm-4.3 1.7c0.5-1.9 2-4.5 4.3-4.7-0.5 1.8-2.3 3.4-4.3 4.7zm-5.1 3.1c0.6-2.4 1.6-4.9 4.6-6.1-0.6 2.2-2 4.2-4.6 6.1zm-4.4 2.4c-0.2-2.4 1.4-4.7 3.8-6.3-0.4 2.3-1.5 5-3.8 6.3zm-4.6 3.6c-0.4-2.5 0.6-5.1 3.2-7.1-0.1 2.2-1 5.7-3.2 7.1z"/>
  <linearGradient id="SVGID_14_" x1="59.58" x2="66.28" y1="34.72" y2="34.72" gradientUnits="userSpaceOnUse">
    <stop stop-color="#C5D7EE" offset="0"/>
    <stop stop-color="#6288B4" offset="1"/>
  </linearGradient>
  <path d="m59.6 34.5c1.5-0.8 3.9-1.1 6.6 0.6-2.3 0.9-3.8 0.6-6.6-0.6z" fill="url(#SVGID_14_)"/>
  <linearGradient id="SVGID_15_" x1="55.63" x2="62.4" y1="36.69" y2="36.69" gradientUnits="userSpaceOnUse">
    <stop stop-color="#C5D7EE" offset="0"/>
    <stop stop-color="#6288B4" offset="1"/>
  </linearGradient>
  <path d="m55.6 36.4c2-1 4.5-1 6.8 0.5-1.9 0.6-4 1-6.8-0.5z" fill="url(#SVGID_15_)"/>
  <linearGradient id="SVGID_16_" x1="52.24" x2="58.6" y1="38.56" y2="38.56" gradientUnits="userSpaceOnUse">
    <stop stop-color="#C5D7EE" offset="0"/>
    <stop stop-color="#6288B4" offset="1"/>
  </linearGradient>
  <path d="m52.2 38.4c1.9-1 4.5-1 6.4 0.3-2.1 0.7-4 0.8-6.4-0.3z" fill="url(#SVGID_16_)"/>
  <linearGradient id="SVGID_17_" x1="47.91" x2="55.59" y1="41.15" y2="41.15" gradientUnits="userSpaceOnUse">
    <stop stop-color="#C5D7EE" offset="0"/>
    <stop stop-color="#6288B4" offset="1"/>
  </linearGradient>
  <path d="m47.9 41.5c1.8-1.6 4.8-2.1 7.7-0.9-2 1.1-4.4 1.9-7.7 0.9z" fill="url(#SVGID_17_)"/>
  <linearGradient id="SVGID_18_" x1="44.86" x2="52.05" y1="44.52" y2="44.52" gradientUnits="userSpaceOnUse">
    <stop stop-color="#6288B4" offset="0"/>
    <stop stop-color="#346595" offset="1"/>
  </linearGradient>
  <path d="m44.9 45.7c1.3-1.8 4.2-2.8 7.1-2.3-1.5 1.5-3.3 2.7-7.1 2.3z" fill="url(#SVGID_18_)"/>
  <linearGradient id="SVGID_19_" x1="40.13" x2="42.82" y1="43.59" y2="43.59" gradientUnits="userSpaceOnUse">
    <stop stop-color="#6288B4" offset="0"/>
    <stop stop-color="#346595" offset="1"/>
  </linearGradient>
  <path d="m40.1 45.5c0.4-2 1.3-3.8 2.7-4.6-0.3 2 0.6 3.8-0.2 5.3l-2.5-0.7z" fill="url(#SVGID_19_)"/>
  <path class="cls-16" d="m43.6 45.5c1.6-3.5 6.5-6.9 9.5-7.9-3.5 2.1-6.7 5.1-9 8.1l-0.5-0.2z"/>
  <path class="cls-16" d="m52.2 38.6c1.2-0.9 1.9-1.4 2.9-1.9l-2.9 1.9z"/>
  <path class="cls-16" d="m53.4 37.9c0.5-0.9 0.8-2.2 2.3-3.9l-2.3 3.9z"/>
  <path class="cls-23" d="m54.1 36.6 1.8-2.6z"/>
  <path class="cls-16" d="m48.9 39.4c0.1-1.3 0.6-2 1.6-3.5l-1.6 3.5z"/>
  <path class="cls-16" d="m44.5 43.4c-0.4-1.4 0-2.4 0.7-3.9l-0.7 3.9z"/>
  <path class="cls-16" d="m41.4 45.5c0-1.1 0-2.5 0.7-3.5l-0.7 3.5z"/>
  <linearGradient id="SVGID_20_" x1="63.52" x2="69.06" y1="31.59" y2="31.59" gradientUnits="userSpaceOnUse">
    <stop stop-color="#fff" offset="0"/>
    <stop stop-color="#96B3D4" offset="1"/>
  </linearGradient>
  <path d="m63.5 32.9c1.5-1.2 3.5-1.8 5.6-2.5-1.4 1-3.2 2.1-5.6 2.5z" fill="url(#SVGID_20_)"/>
  <path class="cls-16" d="m56.9 45.5c1.7-1.5 4.6-3.4 5.8-3.1 0 0 0.3-1.3 1.2-1.4 1.5 0 1.7 2.2-0.3 2.4-1.7 0.8-3.1 2.5-4.4 2.3l-2.3-0.2z"/>
  <circle class="cls-4" cx="63.7" cy="42.4" r=".5"/>
  <path class="cls-16" d="m61.7 45.5c1-1 3.7-2.1 4.5-1.8 0.9 0.3 1.9 1.2 2.3 2l-1.5-0.2c-0.6-0.4-1.4-0.6-1.9-0.6l-2.1 0.6h-1.3z"/>
  <linearGradient id="SVGID_21_" x1="52.24" x2="54.01" y1="41.85" y2="41.85" gradientUnits="userSpaceOnUse">
    <stop stop-color="#fff" offset="0"/>
    <stop stop-color="#96B3D4" offset="1"/>
  </linearGradient>
  <path d="m52.2 41.5 1.8 0.4-1.8 0.3z" fill="url(#SVGID_21_)"/>
  <linearGradient id="SVGID_22_" x1="45.96" x2="50.51" y1="44.7" y2="44.7" gradientUnits="userSpaceOnUse">
    <stop stop-color="#fff" offset="0"/>
    <stop stop-color="#96B3D4" offset="1"/>
  </linearGradient>
  <path d="m46 45.1 4.5-0.9-4.5 1.5z" fill="url(#SVGID_22_)"/>
  <path class="cls-16" d="m52.1 38.9c0.5-0.9 0.9-1.2 1.3-1.3l-1.3 1.3z"/>
  <path class="cls-16" d="m87.5 33.1c-1.6-1.7-3.1-3.1-8.6-3.6 2.3 2.1 4.6 3.7 8.6 3.6z"/>
  <linearGradient id="SVGID_23_" x1="83.51" x2="90.21" y1="34.72" y2="34.72" gradientUnits="userSpaceOnUse">
    <stop stop-color="#C5D7EE" offset="0"/>
    <stop stop-color="#6288B4" offset="1"/>
  </linearGradient>
  <path d="m90.2 34.5c-1.5-0.8-4-1.1-6.7 0.6 2.4 0.8 3.9 0.8 6.7-0.6z" fill="url(#SVGID_23_)"/>
  <path class="cls-16" d="m91.6 34.5c-0.6-1.9-2.2-4.3-4.5-4.4 0.5 1.9 2.5 3.5 4.5 4.4z"/>
  <linearGradient id="SVGID_24_" x1="92.12" x2="96.27" y1="34.95" y2="34.95" gradientUnits="userSpaceOnUse">
    <stop stop-color="#C5D7EE" offset="0"/>
    <stop stop-color="#6288B4" offset="1"/>
  </linearGradient>
  <path d="m96.2 37.6c-0.5-2.4-1.3-4.5-4.1-5.9 0.4 2.2 1.8 4.2 4.1 5.9z" fill="url(#SVGID_24_)"/>
  <linearGradient id="SVGID_25_" x1="97.22" x2="101.5" y1="37.35" y2="37.35" gradientUnits="userSpaceOnUse">
    <stop stop-color="#C5D7EE" offset="0"/>
    <stop stop-color="#6288B4" offset="1"/>
  </linearGradient>
  <path d="m101.4 40c0.2-2.4-1.4-4.9-4-6 0.3 2.1 1.7 4.7 4 6z" fill="url(#SVGID_25_)"/>
  <linearGradient id="SVGID_26_" x1="102.3" x2="105.9" y1="41.05" y2="41.05" gradientUnits="userSpaceOnUse">
    <stop stop-color="#C5D7EE" offset="0"/>
    <stop stop-color="#6288B4" offset="1"/>
  </linearGradient>
  <path d="m105.6 44c0.6-2.5-0.4-5.4-3.2-7.1 0.3 2.2 1.1 5.7 3.2 7.1z" fill="url(#SVGID_26_)"/>
  <linearGradient id="SVGID_27_" x1="87.4" x2="94.17" y1="36.58" y2="36.58" gradientUnits="userSpaceOnUse">
    <stop stop-color="#C5D7EE" offset="0"/>
    <stop stop-color="#6288B4" offset="1"/>
  </linearGradient>
  <path d="m94.1 36.4c-1.9-1-4.2-1-6.7 0.3 2 0.7 3.7 1.2 6.7-0.3z" fill="url(#SVGID_27_)"/>
  <linearGradient id="SVGID_28_" x1="91.09" x2="97.45" y1="38.45" y2="38.45" gradientUnits="userSpaceOnUse">
    <stop stop-color="#C5D7EE" offset="0"/>
    <stop stop-color="#6288B4" offset="1"/>
  </linearGradient>
  <path d="m97.4 38.4c-1.9-1-4.4-1.2-6.3 0.1 2 0.6 3.9 1 6.3-0.1z" fill="url(#SVGID_28_)"/>
  <linearGradient id="SVGID_29_" x1="94.48" x2="101.6" y1="41.15" y2="41.15" gradientUnits="userSpaceOnUse">
    <stop stop-color="#C5D7EE" offset="0"/>
    <stop stop-color="#6288B4" offset="1"/>
  </linearGradient>
  <path d="m101.5 41.5c-1.6-1.6-4.6-2.1-7.1-1 1.8 1.1 4 2 7.1 1z" fill="url(#SVGID_29_)"/>
  <linearGradient id="SVGID_30_" x1="97.87" x2="104.4" y1="44.52" y2="44.52" gradientUnits="userSpaceOnUse">
    <stop stop-color="#6288B4" offset="0"/>
    <stop stop-color="#346595" offset="1"/>
  </linearGradient>
  <path d="m104.4 45.5c-1.2-1.6-3.7-2.5-6.5-2.1 1.5 1.3 3.2 2.6 6.5 2.1z" fill="url(#SVGID_30_)"/>
  <linearGradient id="SVGID_31_" x1="106.7" x2="109.4" y1="43.59" y2="43.59" gradientUnits="userSpaceOnUse">
    <stop stop-color="#6288B4" offset="0"/>
    <stop stop-color="#346595" offset="1"/>
  </linearGradient>
  <path d="m109.4 45.5c-0.3-2-0.8-3.9-2.5-4.6 0.3 1.8-0.5 3.7 0.3 4.8l2.2-0.2z" fill="url(#SVGID_31_)"/>
  <path class="cls-16" d="m106.4 45.5c-1.8-3.5-6.7-6.8-9.8-8 3.3 2.2 6.9 5 9.1 8.1l0.7-0.1z"/>
  <path class="cls-16" d="m97.4 37.9c-0.8-0.9-1.5-1.4-2.4-1.9l2.4 1.9z"/>
  <path class="cls-16" d="m96.2 37.2c-0.5-0.8-0.8-2-2.1-3.7l2.1 3.7z"/>
  <path class="cls-23" d="m95.5 36-1.8-2.5z"/>
  <path class="cls-16" d="m100.6 39.4c-0.1-1.3-0.6-2-1.5-3.5l1.5 3.5z"/>
  <path class="cls-16" d="m105.1 43.4c0.4-1.4 0-2.4-0.6-3.9l0.6 3.9z"/>
  <path class="cls-16" d="m108.4 45.5c0-1.1 0-2.5-0.7-3.5l0.7 3.5z"/>
  <linearGradient id="SVGID_32_" x1="80.67" x2="85.86" y1="31.59" y2="31.59" gradientUnits="userSpaceOnUse">
    <stop stop-color="#fff" offset="0"/>
    <stop stop-color="#96B3D4" offset="1"/>
  </linearGradient>
  <path d="m85.9 32.4-5.2-1.7c1.5 0.4 3.7 0.4 5.2 1.7z" fill="url(#SVGID_32_)"/>
  <path class="cls-16" d="m93.1 45.5c-1.7-1.5-4.6-3.4-6-3.5 0 0-0.2-1.1-1.2-1-1.5 0.2-1.8 2.1 0.2 2.4 1.8 0.8 3.4 2.5 4.5 2.3l2.5-0.2z"/>
  <circle class="cls-4" cx="85.9" cy="42.1" r=".5"/>
  <path class="cls-16" d="m88.1 45.5c-1-0.9-3.5-2.1-4.9-1.8-1.2 0.3-1.8 1.3-2.1 1.8h0.8c0.5-0.5 1.1-1.1 1.7-1.1 1.3 0 2.3 1.3 3 1.3l1.5-0.2z"/>
  <linearGradient id="SVGID_33_" x1="96.68" x2="100.7" y1="41.05" y2="41.05" gradientUnits="userSpaceOnUse">
    <stop stop-color="#fff" offset="0"/>
    <stop stop-color="#96B3D4" offset="1"/>
  </linearGradient>
  <path d="m96.6 41h4l-4 0.1z" fill="url(#SVGID_33_)"/>
  <linearGradient id="SVGID_34_" x1="99.14" x2="103.5" y1="44.7" y2="44.7" gradientUnits="userSpaceOnUse">
    <stop stop-color="#fff" offset="0"/>
    <stop stop-color="#96B3D4" offset="1"/>
  </linearGradient>
  <path d="m99.1 44.2 4.4 1-2.3-0.1z" fill="url(#SVGID_34_)"/>
  <path class="cls-16" d="m97.1 38.4c-0.6-0.5-0.9-0.9-1.4-1l1.4 1z"/>
  <path class="cls-16" d="m52.1 45.5c3.5-3.8 9.8-7.4 16.5-8.6v4.2l2 2.1v2.3h-0.9v-1.9l-2.2-2.1v-2.9c-3.4 0.8-9.4 3.4-13 7l-2.4-0.1z"/>
  <path class="cls-16" d="m97.5 45.5c-3.4-3.9-9.9-7.5-16.6-8.6v4.1l-2.2 2.1v2.4h0.9v-1.9l2.1-2.1v-2.9c3.4 0.8 8.9 3.4 13.5 7l2.3-0.1z"/>
  <linearGradient id="SVGID_35_" x1="72.09" x2="74.88" y1="37.13" y2="37.13" gradientUnits="userSpaceOnUse">
    <stop stop-color="#7397BC" offset="0"/>
    <stop stop-color="#03395F" offset="1"/>
  </linearGradient>
  <path d="m72.9 38.4v-1.9l-0.4-0.4-0.4 0.4v1.9c-1.7 0.2-2 2.6-0.2 3.1v4h0.7v-4c1.6-0.5 1.5-2.9 0.3-3.1zm-0.8 2.3c-1 0-1.1-1.7 0-1.7s1.1 1.7 0 1.7z" fill="url(#SVGID_35_)"/>
  <linearGradient id="SVGID_36_" x1="75.82" x2="78.71" y1="40.71" y2="40.71" gradientUnits="userSpaceOnUse">
    <stop stop-color="#7397BC" offset="0"/>
    <stop stop-color="#346595" offset="1"/>
  </linearGradient>
  <path d="m77.6 38.4v-1.9l-0.4-0.3-0.2 0.3v1.9c-1.6 0.6-1.5 2.6-0.1 3v4.1h0.7v-4c1.5-0.5 1.5-2.5 0-3.1zm-0.4 2.3c-1 0-1-1.6 0-1.6s1 1.6 0 1.6z" fill="url(#SVGID_36_)"/>
  <linearGradient id="SVGID_37_" x1="72.09" x2="74.88" y1="37.13" y2="37.13" gradientUnits="userSpaceOnUse">
    <stop stop-color="#0C2F51" offset="0"/>
    <stop stop-color="#03395F" offset="1"/>
  </linearGradient>
  <path d="m72.1 32.1 2.6-4.2 0.2 17.6h-2.8z" fill="url(#SVGID_37_)"/>
  <path class="cls-5" d="m15.2 87.4h29.3c3.1 4.6 6.4 9.2 11 13.2l-0.9 8c-5-4.1-9.7-9.6-14.6-17.7l-24.8-3.5z"/>
  <linearGradient id="SVGID_38_" x1="17.72" x2="55.39" y1="98.1" y2="98.1" gradientUnits="userSpaceOnUse">
    <stop stop-color="#737B84" offset="0"/>
    <stop stop-color="#838C94" offset="1"/>
  </linearGradient>
  <path d="m17.7 88.1 23.5 2c4 5.9 8.2 12.1 14.2 17v-6.2c-3.9-3.3-7.8-8.9-11-13l-26.7 0.2z" fill="url(#SVGID_38_)"/>
  <path class="cls-5" d="m105 87.4h30.1l-25.2 3.3c-4.3 6.4-8.2 11.9-14.5 17.9l-0.8-7.6c3.8-3.3 8-8.8 10.4-13.6z"/>
  <linearGradient id="SVGID_39_" x1="94.62" x2="131.6" y1="98.1" y2="98.1" gradientUnits="userSpaceOnUse">
    <stop stop-color="#838C94" offset="0"/>
    <stop stop-color="#BCC1C6" offset="1"/>
  </linearGradient>
  <path d="m105 87.4h26.6l-22 2.6c-3.4 5.1-8.4 12.4-15 17.1v-6.1c3.6-3.1 7.8-8.4 10.4-13.6z" fill="url(#SVGID_39_)"/>
  <path class="cls-25" d="m19 87.9 22.4 1.3c2.7 4.4 8.3 12.2 13.6 16.4v-1c-3.8-2.9-10.5-11.2-13.9-15.1l-12.2-1.1 12 0.7 14.1 14.9-10.9-15.4-0.1-0.4-25-0.3z"/>
  <path class="cls-25" d="m119.6 87.9-11.2 0.8-2.7 3.9 1.2-3.5 0.7-0.7 12-0.5-13.9 0.2-11.1 13.5 13.8-12.5z"/>
  <path class="cls-11" d="m41.9 88.9 3 4.1-2.4-1.3-1.1-2.3-9.8-0.8z"/>
  <path class="cls-11" d="m108.9 89.1-2.4 3.5 2.1-1.2 1.3-1.8 8-1z"/>
  <path class="cls-5" d="m41.9 88.9 0.7 1.5 2.9 2.2-0.4-1.5-1.6-2.2z"/>
  <path class="cls-5" d="m45.6 92.6 0.3 1.4 2 2.4-3.9-2.5-0.8-1.3 2.4 1.1z"/>
  <path class="cls-5" d="m48.4 95.5 0.8 2.5-3.6-1.6-1.1-2.4 2.6 2 1.3 0.4v-0.9z"/>
  <path class="cls-5" d="m48.1 98.9 3.3 0.7-0.3-2.5 0.5 1.3 0.3 3.7-2.4-1.4-1.4-1.8z"/>
  <path class="cls-5" d="m52.1 100.4 1.5 2.5-2.4-0.8 2.7 1.9v-3.1l-1.8-1.2z"/>
  <path class="cls-5" d="m41.9 89 0.8-0.1 1 1.5-0.6 0.2z"/>
  <path class="cls-5" d="m45.9 92.6 0.5 1.4h-0.2l2.4 2.4-1-2.4-1.7-1.4z"/>
  <path class="cls-5" d="m49.2 96.6 0.3 1.4h0.2l-0.1-0.9z"/>
  <path class="cls-5" d="m106.5 88.9-1.9 3.5 1.5-0.3 0.8-0.5 0.3-1-1.8 0.8 1.2-2.5z"/>
  <path class="cls-5" d="m103.6 92.1-2.1 3.8h1.4l0.6-1.8 2.1-0.1-3.2 3.6 3-1.6 1.1-2.4-2.8 1.9 0.9-2.4z"/>
  <path class="cls-5" d="m100.1 96.6-2 2.3v3.2l3-2.2-2.1 0.5 0.6-1.5 1.9-0.3-1.4-2z"/>
  <path class="cls-5" d="m97.1 100.4-1.2 3.6 2.5-1.4-1.9 0.4 0.6-2.6z"/>
  <path class="cls-5" d="m107.1 89h0.6l0.4-0.1 0.1 0.1-0.5 1.4-1.1 0.5z"/>
  <path class="cls-5" d="m106.4 91.9h0.7l-0.5 1-0.5-0.3z"/>
  <path class="cls-7" d="m49.2 90c2 2.9 5.9 6.9 7.9 8.4l-0.2-1c-3.5-2.9-6-5.9-7.7-7.4z"/>
  <path class="cls-7" d="m100.6 89.6c-2 3-4.5 5.8-7.1 8.5l0.1-0.7c2.8-2 5.1-5 7-7.8z"/>
  <radialGradient id="SVGID_40_" cx="62.92" cy="91.72" r="15.27" gradientUnits="userSpaceOnUse">
    <stop stop-color="#16507A" offset="0"/>
    <stop stop-color="#081728" offset="1"/>
  </radialGradient>
  <path d="m49.5 87.4c1.7 2.7 6 7.1 8.6 8.8l0.9-1.2c-2.6-1.6-6.5-5.8-7.9-7.6h-1.6z" fill="url(#SVGID_40_)"/>
  <radialGradient id="SVGID_41_" cx="66.77" cy="91.17" r="13.8" gradientUnits="userSpaceOnUse">
    <stop stop-color="#16507A" offset="0"/>
    <stop stop-color="#081728" offset="1"/>
  </radialGradient>
  <path d="m53.1 87.4c1.9 2.5 4.4 4.8 6.5 6.6l0.8-1c-1.9-1.4-4.9-4.4-5.9-5.6h-1.4z" fill="url(#SVGID_41_)"/>
  <radialGradient id="SVGID_42_" cx="69.23" cy="89.98" r="8.27" gradientUnits="userSpaceOnUse">
    <stop stop-color="#16507A" offset="0"/>
    <stop stop-color="#081728" offset="1"/>
  </radialGradient>
  <path d="m56.1 87.4c1 1.5 3.3 3.8 4.3 4.6l1-0.9c-1.5-1.1-2.7-2.7-4-3.7h-1.3z" fill="url(#SVGID_42_)"/>
  <radialGradient id="SVGID_43_" cx="70.87" cy="88.93" r="4.263" gradientUnits="userSpaceOnUse">
    <stop stop-color="#16507A" offset="0"/>
    <stop stop-color="#081728" offset="1"/>
  </radialGradient>
  <path d="m61.4 87.4 2.6 2.6 1.1-0.8-1.9-1.8z" fill="url(#SVGID_43_)"/>
  <radialGradient id="SVGID_44_" cx="65.29" cy="87.98" r="4.164" gradientUnits="userSpaceOnUse">
    <stop stop-color="#16507A" offset="0"/>
    <stop stop-color="#081728" offset="1"/>
  </radialGradient>
  <path d="m64.1 87.4 1.5 1 2-0.8z" fill="url(#SVGID_44_)"/>
  <radialGradient id="SVGID_45_" cx="95.38" cy="90.93" r="8.99" gradientUnits="userSpaceOnUse">
    <stop stop-color="#16507A" offset="0"/>
    <stop stop-color="#081728" offset="1"/>
  </radialGradient>
  <path d="m91.2 94.4 0.7 1c2.5-1.4 6.7-5.8 8.2-7.9l-1.5-0.1c-1.2 1.6-5.2 5.7-7.4 7z" fill="url(#SVGID_45_)"/>
  <radialGradient id="SVGID_46_" cx="91.84" cy="90.48" r="6.192" gradientUnits="userSpaceOnUse">
    <stop stop-color="#16507A" offset="0"/>
    <stop stop-color="#081728" offset="1"/>
  </radialGradient>
  <path d="m90.6 93.6 0.5 0.8c2.3-1.8 5.5-5 5.8-7h-1c-1 1.5-4 4.6-5.3 5.7v0.5z" fill="url(#SVGID_46_)"/>
  <radialGradient id="SVGID_47_" cx="89.85" cy="89.43" r="4.014" gradientUnits="userSpaceOnUse">
    <stop stop-color="#16507A" offset="0"/>
    <stop stop-color="#081728" offset="1"/>
  </radialGradient>
  <path d="m88.6 91.4 0.9 0.6c1.6-1.4 3.7-3.3 4.2-4.5h-1.3l-3.8 3.5v0.4z" fill="url(#SVGID_47_)"/>
  <radialGradient id="SVGID_48_" cx="88.31" cy="88.78" r="2.64" gradientUnits="userSpaceOnUse">
    <stop stop-color="#16507A" offset="0"/>
    <stop stop-color="#081728" offset="1"/>
  </radialGradient>
  <path d="m87.1 90.1 0.8 0.6 3.5-3.2h-1.3z" fill="url(#SVGID_48_)"/>
  <radialGradient id="SVGID_49_" cx="85.74" cy="87.93" r="2.064" gradientUnits="userSpaceOnUse">
    <stop stop-color="#16507A" offset="0"/>
    <stop stop-color="#081728" offset="1"/>
  </radialGradient>
  <path d="m85.5 89 0.9 0.6 2-2.2h-1.5z" fill="url(#SVGID_49_)"/>
  <circle class="cls-21" cx="74.9" cy="106.5" r="20.4"/>
  <radialGradient id="SVGID_50_" cx="74.65" cy="91.72" r="9.019" gradientUnits="userSpaceOnUse">
    <stop stop-color="#4694C1" offset="0"/>
    <stop stop-color="#0D3150" offset=".473"/>
    <stop stop-color="#081728" offset="1"/>
  </radialGradient>
  <path d="m69.4 91 1.7-2.3c2.4-0.7 5.5-0.8 8 0.2l2 2.5c-2 0.2-4.5 0.6-6.2 1.5-1.9-1-3.4-1.5-5.5-1.9z" fill="url(#SVGID_50_)"/>
  <radialGradient id="SVGID_51_" cx="65.42" cy="92.42" r="5.074" gradientUnits="userSpaceOnUse">
    <stop stop-color="#fff" offset="0"/>
    <stop stop-color="#C5C7C9" offset="1"/>
  </radialGradient>
  <path d="m59.9 95.7c2.2-3.1 6.2-6.1 10.5-7l-1.8 2.3c-2 0.9-4.5 2.6-5.7 4.1l-3 0.6z" fill="url(#SVGID_51_)"/>
  <radialGradient id="SVGID_52_" cx="85.44" cy="92.37" r="4.975" gradientUnits="userSpaceOnUse">
    <stop stop-color="#fff" offset="0"/>
    <stop stop-color="#C5C7C9" offset="1"/>
  </radialGradient>
  <path d="m79.4 88.6c3.7 0.8 8.2 3.4 10.5 7l-2.8-0.6c-1.5-1.4-3.6-3.1-6-4l-1.7-2.4z" fill="url(#SVGID_52_)"/>
  <radialGradient id="SVGID_53_" cx="72.18" cy="96.81" r="6.435" gradientUnits="userSpaceOnUse">
    <stop stop-color="#fff" offset="0"/>
    <stop stop-color="#C5C7C9" offset="1"/>
  </radialGradient>
  <path d="m74.4 93.5v5.5c-1.8 0.9-4.5 3-5.8 4.2l-5.4-1.8c-0.2-1.5-0.2-4.5 0.2-5.8 1.1-1.1 4.2-3.5 5.6-3.7 1.7 0 4.4 0.8 5.4 1.6z" fill="url(#SVGID_53_)"/>
  <radialGradient id="SVGID_54_" cx="81.09" cy="97.01" r="6.088" gradientUnits="userSpaceOnUse">
    <stop stop-color="#fff" offset="0"/>
    <stop stop-color="#C5C7C9" offset="1"/>
  </radialGradient>
  <path d="m75.4 93.5v5.5c1.7 0.9 4.5 2.7 5.7 4.2l5.5-1.8c0.5-1.5 0-5-0.4-5.9-1.1-1-3.8-3.4-5.5-3.6-1.6 0.2-4.3 1-5.3 1.6z" fill="url(#SVGID_54_)"/>
  <radialGradient id="SVGID_55_" cx="65.62" cy="108.8" r="6.844" gradientUnits="userSpaceOnUse">
    <stop stop-color="#E5E6E7" offset="0"/>
    <stop stop-color="#92989D" offset="1"/>
  </radialGradient>
  <path d="m62.9 102.4 5.6 2 2 7.3-3.4 4.8c-1.5-0.4-4.6-1.3-5.4-1.9-1-1.4-2.3-5-2.2-7 0.6-1.5 2.1-3.9 3.4-5.2z" fill="url(#SVGID_55_)"/>
  <radialGradient id="SVGID_56_" cx="83.96" cy="108.8" r="7.004" gradientUnits="userSpaceOnUse">
    <stop stop-color="#E5E6E7" offset="0"/>
    <stop stop-color="#92989D" offset="1"/>
  </radialGradient>
  <path d="m86.9 102.4-5.7 2-2.2 7.5 3.2 4.7c1.4 0 5.7-1.1 6.3-2 1-1.4 2.1-4.6 2-6.7-0.5-1.5-2.4-4.3-3.6-5.5z" fill="url(#SVGID_56_)"/>
  <radialGradient id="SVGID_57_" cx="74.65" cy="116.6" r="7.674" gradientUnits="userSpaceOnUse">
    <stop stop-color="#B4BAC0" offset="0"/>
    <stop stop-color="#737B84" offset="1"/>
  </radialGradient>
  <path d="m71.1 112.5-3.2 4.5c0.5 1.4 2.5 4.4 3.2 4.9 1.8 0.3 5.4 0.5 7.3 0 1.2-0.9 3.1-3.9 3.1-4.9l-3.1-4.5c-2.4 0.2-4.9 0.2-7.3 0z" fill="url(#SVGID_57_)"/>
  <radialGradient id="SVGID_58_" cx="74.9" cy="123.6" r="5.124" gradientUnits="userSpaceOnUse">
    <stop stop-color="#B4BAC0" offset="0"/>
    <stop stop-color="#838C94" offset="1"/>
  </radialGradient>
  <path d="m68.5 123.7 2.4-1.1c2.2 0.3 5.5 0.3 7.7 0l2.4 1.1c-2.9 1.4-9.5 1.8-12.5 0z" fill="url(#SVGID_58_)"/>
  <radialGradient id="SVGID_59_" cx="58.98" cy="112" r="4.386" gradientUnits="userSpaceOnUse">
    <stop stop-color="#B4BAC0" offset="0"/>
    <stop stop-color="#838C94" offset="1"/>
  </radialGradient>
  <path d="m56.6 106.1 2 1.9c0.3 1.9 1.8 5.5 2.4 7l-0.3 3.2c-2.3-2.3-4.3-7.6-4.1-12.1z" fill="url(#SVGID_59_)"/>
  <radialGradient id="SVGID_60_" cx="92.33" cy="112.4" r="4.322" gradientUnits="userSpaceOnUse">
    <stop stop-color="#B4BAC0" offset="0"/>
    <stop stop-color="#838C94" offset="1"/>
  </radialGradient>
  <path d="m93.2 106.5-2 1.9c-0.1 2-1.6 5.2-2.3 6.6l0.2 3.2c2.3-2 4.3-7.3 4.1-11.7z" fill="url(#SVGID_60_)"/>
  <radialGradient id="SVGID_61_" cx="65.22" cy="119.9" r="4.778" gradientUnits="userSpaceOnUse">
    <stop stop-color="#16507A" offset="0"/>
    <stop stop-color="#081728" offset="1"/>
  </radialGradient>
  <path d="m61.4 115 0.2 4c1.1 1.5 4 3.6 5.9 4.4l2.9-1.4-2.4-3.1 0.6 2.6c-2.9-0.3-5.9-3.6-6.7-5l-0.5-1.5z" fill="url(#SVGID_61_)"/>
  <radialGradient id="SVGID_62_" cx="84.01" cy="119.7" r="4.75" gradientUnits="userSpaceOnUse">
    <stop stop-color="#16507A" offset="0"/>
    <stop stop-color="#081728" offset="1"/>
  </radialGradient>
  <path d="m88.2 115.5 0.2 3.5c-1.3 1.5-4.2 3.6-6.3 4.5l-2.6-1.3 2.2-2.8-0.7 2.2 1.1 0.5c1.9-0.6 5.1-3.1 5.8-3.7l0.3-2.9z" fill="url(#SVGID_62_)"/>
  <radialGradient id="SVGID_63_" cx="89.99" cy="101.3" r="4.644" gradientUnits="userSpaceOnUse">
    <stop stop-color="#16507A" offset="0"/>
    <stop stop-color="#081728" offset="1"/>
  </radialGradient>
  <path d="m87.6 96 2.6 0.9c1.3 2 3 6.2 2.9 7.8l-2 2.4-0.5-0.5 1.5-1.6c0.1-1.4-0.9-5.8-2.5-8l-2-0.8v-0.2z" fill="url(#SVGID_63_)"/>
  <radialGradient id="SVGID_64_" cx="59.03" cy="101.3" r="4.16" gradientUnits="userSpaceOnUse">
    <stop stop-color="#16507A" offset="0"/>
    <stop stop-color="#081728" offset="1"/>
  </radialGradient>
  <path d="m62.2 95.9-2.8 0.8c-1 1.7-2.7 6.4-2.5 8l2.2 2.5 0.3-0.8-1.7-1.7c0-1.6 1.3-6 2.3-7.7l2.4-0.8-0.2-0.3z" fill="url(#SVGID_64_)"/>
  <radialGradient id="SVGID_65_" cx="74.65" cy="105" r="5.479" gradientUnits="userSpaceOnUse">
    <stop stop-color="#16507A" offset="0"/>
    <stop stop-color="#081728" offset="1"/>
  </radialGradient>
  <path d="m69.4 104.2c0.8-1.2 4.2-3.3 5.5-4.2 1.6 0.9 4.8 2.7 5.8 4.2l-1.8 7.4c-1.5 0.4-6 0.3-8 0l-1.5-7.4z" fill="url(#SVGID_65_)"/>
  <path class="cls-9" d="m34.4 84.9v-2.7l-1.5 2.3h-0.4l-1.6-2.3v2.7h-1.1v-4.8h1.1l1.8 2.9 1.7-2.9h1.1v4.8h-1.1zm6.1-2.5h1.2v2c-0.5 0.3-1.2 0.6-2 0.6-1.5 0-2.6-1-2.6-2.4 0-1.5 1.1-2.6 2.6-2.6 0.9 0 1.7 0.4 2.2 0.9l-0.8 0.7c-0.4-0.4-0.7-0.5-1.2-0.5-0.9 0-1.7 0.6-1.7 1.5s0.7 1.4 1.5 1.4c0.3 0 0.5 0 0.8-0.1v-1.5zm2.9 0.1c0-1.4 1.1-2.5 2.6-2.5s2.6 1.1 2.6 2.5-1.1 2.6-2.6 2.6-2.6-1.1-2.6-2.6zm4 0c0-0.8-0.7-1.4-1.4-1.4s-1.5 0.6-1.5 1.4 0.6 1.5 1.5 1.5c0.7 0 1.4-0.6 1.4-1.5zm2.7 0c0-1.4 1.1-2.5 2.5-2.5 0.9 0 1.6 0.2 2.3 0.9l-0.8 0.7c-0.4-0.4-0.7-0.5-1.2-0.5-0.9 0-1.5 0.5-1.5 1.4s0.6 1.5 1.5 1.5c0.5 0 0.8-0.1 1.2-0.5l0.8 0.6c-0.5 0.8-1.3 0.9-2.3 0.9-1.2 0-2.5-1.1-2.5-2.5zm6 2 0.4-0.9c0.4 0.3 1 0.5 1.6 0.5s0.9-0.2 0.9-0.5c0-0.7-2.8-0.1-2.8-2 0-0.9 0.9-1.5 2-1.5 0.7 0 1.3 0.1 1.7 0.4l-0.4 0.9c-0.4-0.3-0.9-0.3-1.3-0.3-0.6 0-0.8 0.3-0.8 0.5 0 0.8 2.7 0.3 2.7 2 0 0.8-0.7 1.5-2.1 1.5-0.8 0-1.5-0.2-1.9-0.6zm10.1 0.4v-2.7l-1.3 2.3h-0.5l-1.5-2.4v2.8h-1.2v-4.7h1.2l1.7 2.8 1.6-2.8h0.9l0.1 4.7h-1zm5.7-4.7h2.2c1.6-0.1 2.6 0.9 2.6 2.3 0 1.5-1 2.4-2.5 2.4h-2.3v-4.7zm2.2 3.8c0.9 0 1.5-0.5 1.5-1.4s-0.6-1.4-1.5-1.4h-0.9v2.8h0.9zm7.8 0v0.9h-3.7v-4.7h3.5v0.9h-2.5v0.9h2.2v1h-2.2v1h2.7zm6.3-3.8v4.7h-1.1v-1.9h-2v1.9h-1.4v-4.7h1.3v1.7h2.1v-1.7h1.1zm2 2.7v-2.8h1.3v2.6c0 0.9 0.4 1.3 1 1.3s1.1-0.4 1.1-1.3v-2.6h1v2.9c0 1.2-0.7 2-2.1 2-1.4 0.1-2.3-0.8-2.3-2.1zm8.4 0.7h-0.9v1.3h-1.2v-4.8h2.2c1.3 0 2 0.8 2 1.8 0 0.6-0.3 1.1-0.8 1.5l0.8 1.5h-1.1l-1-1.3zm0-2.5h-0.9v1.5h0.9c0.6 0 1-0.2 1-0.7s-0.4-0.8-1-0.8zm3.6 1.4c0-1.4 1.2-2.5 2.5-2.5 1.4 0 2.7 1.1 2.7 2.5s-1 2.5-2.7 2.5c-1.3 0-2.5-1-2.5-2.5zm4 0c0-0.8-0.6-1.4-1.3-1.4s-1.5 0.6-1.5 1.4 0.5 1.5 1.3 1.5c0.9 0 1.5-0.6 1.5-1.5zm6.3 1.5h-2.1l-0.5 0.9h-1.4l2.1-4.8h1.5l2 4.8h-1.2l-0.4-0.9zm-0.4-1-0.6-1.6-0.8 1.6h1.4zm3.4-2.8h2.1c1.6-0.1 2.6 0.9 2.6 2.3 0 1.5-1 2.4-2.6 2.4h-2.1v-4.7zm2.1 3.8c0.9 0 1.5-0.5 1.5-1.4s-0.6-1.5-1.5-1.5h-1v2.9h1z"/>
  <path class="cls-11" d="m18 81.2 1 0.8 7.9 0.4v-1.2z"/>
  <path class="cls-11" d="m20.2 83.6 0.3 0.8h6.4v-0.8z"/>
  <path class="cls-11" d="m132 81.2-1.1 0.9-8 0.1v-1z"/>
  <path class="cls-11" d="m129.6 83.6-0.2 0.8h-6.8v-0.8z"/>
  <linearGradient id="SVGID_66_" x1="74.85" x2="74.85" y1="48.09" y2="78.3" gradientUnits="userSpaceOnUse">
    <stop stop-color="#091929" offset=".5806"/>
    <stop stop-color="#081728" offset="1"/>
  </linearGradient>
  <path d="m91.4 47.7h-34.9l-2.9 12.8-1.1-12.8h-8.5l-7 30.7 6 0.2 3.5-13 2.1 13h7l7.1-29.6-3.8 29.4 6 0.2 7-24h4.7l-5.5 23.8 6.8 0.2 6.1-23.7 5.9-0.2-5.3 23.9 16.4-0.2 1.5-5.7-9.1-0.1 1.2-6.2 7.5-0.2 1.6-5.8-6.7-0.4 0.6-5.3 8.9-0.1 1.7-6.7z" fill="url(#SVGID_66_)"/>
  <path class="cls-9" d="m15.9 48.9-6.8 28.8h5.3l6.8-28.8z"/>
  <path class="cls-9" d="m32 48.4c-4.1 0.2-7.8 2.6-8.9 7.6l-3.6 14.6c-1 4.9 1.5 7.8 6.4 7.6 4.6 0 8.7-1.8 10.1-6.8l2.5-9.4h-8.4l-1.1 4.5h2.6l-1 4c-0.5 2.4-2 3.2-3.5 3.2-1.6 0-2.7-0.5-2.1-3.2l3.5-13.8c0.5-2.1 1.6-3.3 3.6-3.3 1.5 0 2.5 0.6 1.9 2.8l-0.6 2.8h5.6l0.6-2.6c1.3-5.7-2.5-8-7.6-8z"/>
  <path class="cls-9" d="m56.9 48.4-4 18.1-1.4-17.8h-7l-7 29h5.2l4.8-20.3 1.9 20.3h5.7l7.3-29.3z"/>
  <path class="cls-9" d="m65.4 48.1-6.8 29.6h5.5l7-29.6z"/>
  <path class="cls-9" d="m73.1 48.1-1.2 6.1h5.2l-5.2 23.7h5.6l6-23.5h5.9l1.2-6.4-17.5 0.1z"/>
  <path class="cls-9" d="m92.6 48.4-7.1 29.3h15l1.1-4.5h-9.2l2-7.7h7.2l1.3-4.5h-7.5l1.7-7h9.3l1.1-5.6z"/>
  <path class="cls-9" d="m116.4 48.4c-5 0.2-7.5 3.1-8.9 10l0.1 0.8h5.3c0.6-3.5 1.2-5.8 2.8-5.8 1.2 0 1.7 0.7 1.3 2.5-0.9 6.2-11.5 9.7-13.3 20.3v1.5l12.8 0.2 1-4.2h-7.9c1-4.8 11.1-8.7 12.5-17.1 0.8-4.5-1.2-8.2-5.7-8.2z"/>
  <path class="cls-9" d="m119.1 73.6-0.9 4.1 4.3 0.2 1.1-4.3z"/>
  <path class="cls-9" d="m136.7 48.4c-4 0-6.6 1.7-7.7 5.8l-3.8 16.9c-0.6 4 1.3 7.1 5.5 7.1 3.9 0 6.9-2.1 7.9-5.8l3.6-16c0.9-4.4-1.1-7.8-5.5-8zm0.9 8-3 14.6c-0.4 2.1-1.1 3-2.9 3-1.3 0-1.7-0.8-1.3-2.9l3.2-14.7c0.4-1.9 1.1-3 2.6-3 1.4 0 1.7 1.2 1.4 3z"/>
  <path class="cls-7" d="m136.9 49.4c-4.3-0.3-6.3 2-6.9 4.7l-3.9 16.9c-0.5 2.9 0.4 6.5 4.6 6.5 3.4 0 6-1.5 7-5.1l3.7-16c0.7-3.9-0.7-6.8-4.5-7zm1.5 7.1-3 14.7c-0.5 2.4-1.4 3.8-3.8 3.8-2 0-2.6-1.4-2-4.1l3.4-14.8c0.4-2.1 1.4-3.9 3.5-3.7 1.9 0.1 2.2 2.3 1.9 4.1z"/>
  <path class="cls-7" d="m119.7 74.1-0.6 2.9h2.6l0.8-2.9z"/>
  <path class="cls-7" d="m116.2 49.4c-4.1 0.1-6.2 2.5-7.5 8.3h3.3c0.6-2.2 1.1-5.3 3.7-5.5 2.5 0 2.7 2.2 2 4.5-1.8 7-11.7 9.9-13.1 20.2h11.4l0.6-2.5h-8c0.6-5.9 11.1-9.9 12.6-17.8 0.9-4.2-0.7-7.2-5-7.2z"/>
  <path class="cls-10" d="m12.6 64.5-2.7 12.5h4l2.8-12.5z"/>
  <path class="cls-10" d="m21.9 64.5-2 6.6c-0.8 4.9 2.1 6.8 5.7 6.6 4 0 8.4-1.3 9.8-6.3l1.6-6.9h-7l-0.3 1.4h2.9l-1.5 5.5c-0.6 1.8-2 3.1-4.1 3-2.4-0.2-3-1.7-2.4-4.5l1-5.4h-3.7z"/>
  <path class="cls-10" d="m41.6 64.5-3.2 12.4h3.8l2.9-12.4z"/>
  <path class="cls-10" d="m48.9 64.5 1.2 12.5h4.4l2.9-12.6h-3.3l-1.1 3.1-1-3z"/>
  <path class="cls-10" d="m62.5 64.5-2.9 12.5h4l2.9-12.5z"/>
  <path class="cls-10" d="m76 64.5-2.9 12.5h3.8l2.8-12.6z"/>
  <path class="cls-10" d="m89.6 64.5-3.1 12.5 13.5-0.1 0.6-3h-9.1l2.1-9.4z"/>
  <path class="cls-12" d="m128 64.5-1.9 6.6c-0.7 2.9 0.5 6.4 4.3 6.3 3.6 0 6.1-1.5 7.1-5l2-8h-2.8l-2 7.6c-0.5 1.9-1.2 3-3.1 3.1-2.2 0.3-2.6-1.5-2-4l1.8-6.6h-3.4z"/>
  <path class="cls-12" d="m112.6 64.5 4 0.1c-2.2 2.4-6.5 5.4-8.1 9.8h7.4l-0.4 2h-10.8c0.9-5.5 4.7-8.9 7.9-11.9z"/>
  <linearGradient id="SVGID_67_" x1="91.04" x2="101.6" y1="64.53" y2="64.53" gradientUnits="userSpaceOnUse">
    <stop stop-color="#fff" offset="0"/>
    <stop stop-color="#C5C7C9" offset="1"/>
  </linearGradient>
  <path d="m90 64.5h11.6l-0.2 0.6-7.8-0.1-2.6-0.4z" fill="url(#SVGID_67_)"/>
</svg>